<svg width="351" height="351" viewBox="0 0 351 351" fill="none" xmlns="http://www.w3.org/2000/svg">
<mask id="mask0_302_138" style="mask-type:alpha" maskUnits="userSpaceOnUse" x="0" y="0" width="351" height="351">
<circle cx="175.572" cy="175.116" r="175" fill="#F82E00"/>
</mask>
<g mask="url(#mask0_302_138)">
<rect width="350" height="350" transform="translate(0.572266 0.115601)" fill="#F9F7F2"/>
<mask id="mask1_302_138" style="mask-type:alpha" maskUnits="userSpaceOnUse" x="0" y="0" width="351" height="351">
<rect x="0.572266" y="0.115601" width="350" height="350" fill="#C4C4C4"/>
</mask>
<g mask="url(#mask1_302_138)">
</g>
<path d="M80.8429 143.914H90.4334V163.672H112.441V143.914H122.1V194.832H112.441V172.751H90.4334V194.832H80.8429V143.914Z" fill="#F82E00"/>
<path d="M127.682 180.793V158.444H136.305V178.627C136.305 184.006 138.583 187.917 143.272 187.917C149.138 187.917 151.828 182.819 151.828 177.162V158.444H160.451V194.83H151.828V185.472C151.069 189.732 147.344 195.948 139.616 195.948C132.856 195.948 127.682 191.269 127.682 180.793Z" fill="#F82E00"/>
<path d="M174.592 186.101C174.387 188.615 174.318 191.618 174.318 194.83H165.901V143.706H174.523V174.436C175.077 165.984 179.697 157.326 187.977 157.326C196.395 157.326 201.844 165.427 201.844 176.322C201.844 188.823 195.222 195.946 187.149 195.946C179.563 195.946 175.698 190.01 174.594 186.099L174.592 186.101ZM184.321 188.264C189.014 188.264 193.151 184.004 193.151 176.531C193.151 170.106 190.115 165.216 185.218 165.216C179.492 165.216 175.351 173.04 174.937 182.956C176.453 185.05 179.561 188.264 184.321 188.264Z" fill="#F82E00"/>
<path d="M215.292 186.101C215.087 188.615 215.018 191.618 215.018 194.83H206.6V143.706H215.223V174.436C215.777 165.984 220.397 157.326 228.677 157.326C237.095 157.326 242.544 165.427 242.544 176.322C242.544 188.823 235.922 195.946 227.849 195.946C220.263 195.946 216.398 190.01 215.294 186.099L215.292 186.101ZM225.021 188.264C229.713 188.264 233.851 184.004 233.851 176.531C233.851 170.106 230.815 165.216 225.918 165.216C220.192 165.216 216.051 173.04 215.637 182.956C217.153 185.05 220.261 188.264 225.021 188.264Z" fill="#F82E00"/>
<path d="M247.3 180.793V158.444H255.923V178.627C255.923 184.006 258.202 187.917 262.891 187.917C268.756 187.917 271.446 182.819 271.446 177.162V158.444H280.069V194.83H271.446V185.472C270.687 189.732 266.962 195.948 259.234 195.948C252.474 195.948 247.3 191.269 247.3 180.793Z" fill="#F82E00"/>
<path d="M294.209 186.101C294.004 188.615 293.935 191.618 293.935 194.83H285.517V143.706H294.14V174.436C294.693 165.984 299.313 157.326 307.593 157.326C316.011 157.326 321.461 165.427 321.461 176.322C321.461 188.823 314.838 195.946 306.765 195.946C299.179 195.946 295.314 190.01 294.211 186.099L294.209 186.101ZM303.937 188.264C308.63 188.264 312.767 184.004 312.767 176.531C312.767 170.106 309.732 165.216 304.834 165.216C299.108 165.216 294.968 173.04 294.554 182.956C296.069 185.05 299.175 188.264 303.935 188.264H303.937Z" fill="#F82E00"/>
<path d="M215.231 258.4L177.065 220.713L61.619 220.398L29.6837 126.161L215.231 91.8314V127.146H206.28V102.696L41.5227 133.178L68.0177 211.355L180.717 211.663L206.28 236.908V211.346H215.231V258.4Z" fill="#F82E00"/>
</g>
</svg>
